<svg width="260" height="60" viewBox="0 0 260 27" fill="none"  xmlns="http://www.w3.org/2000/svg" xmlns:xlink="http://www.w3.org/1999/xlink">
<path d="M11.1361 0.365448L0 26.5671H5.60423L13.6309 7.07916L21.6938 26.5671H27.3703L16.2342 0.365448H11.1361Z" fill="#2399F1"/>
<path d="M80.8477 5.33443H89.0551V26.5643H94.3701V5.33443H102.614V0.507812H80.8477V5.33443Z" fill="#2399F1"/>
<path d="M59.7302 17.2015L46.6416 0.507935H42.0859V26.5644H47.3286V9.83455L60.4895 26.5644H64.9006V0.507935H59.7302V17.2015Z" fill="#2399F1"/>
<path d="M180.345 12.7376C181.285 11.4675 181.755 9.9433 181.755 8.20136C181.755 5.91507 180.959 4.06426 179.332 2.64894C177.741 1.19733 175.572 0.507812 172.824 0.507812H160.82V26.5643H166.171V16.0401H170.655L178.212 26.5643H184.394L176.404 15.4231C178.103 14.9151 179.405 14.0078 180.345 12.7376ZM175.391 10.7054C174.704 11.2497 173.764 11.5401 172.571 11.5401H166.208V5.22555H172.571C173.764 5.22555 174.741 5.51588 175.391 6.06023C176.078 6.60459 176.404 7.40297 176.404 8.38281C176.404 9.39894 176.078 10.161 175.391 10.7054Z" fill="#2399F1"/>
<path d="M257.396 13.5726C255.805 12.4476 253.925 11.5403 251.756 10.8508C251.033 10.6331 250.093 10.3427 248.936 10.0161C248.068 9.79839 247.381 9.54435 246.839 9.21774C245.935 8.78226 245.465 8.16532 245.465 7.43952C245.465 5.73387 246.947 4.8629 249.876 4.8629C252.84 4.8629 255.661 5.69758 258.3 7.33064V2.14113C255.697 0.725806 252.84 0 249.803 0C246.802 0 244.416 0.653226 242.644 1.99597C240.873 3.30242 240.005 5.11693 240.005 7.43952C240.005 8.67339 240.294 9.90726 240.909 11.0685C241.27 11.6855 242.066 12.4476 243.368 13.3548C243.729 13.5726 244.271 13.8266 245.031 14.1532C245.935 14.5161 246.513 14.6976 246.766 14.7702L248.683 15.3871L250.743 16.004L251.647 16.2944C252.262 16.5121 252.768 16.7298 253.13 16.9476C254.034 17.3831 254.468 18.0726 254.468 19.0887C254.468 20.0323 253.997 20.7581 253.057 21.3024C252.117 21.8468 250.924 22.1008 249.478 22.1008C247.706 22.1008 245.935 21.7742 244.127 21.0847C242.355 20.3952 240.909 19.5605 239.824 18.6169V24.2056C242.5 26.0564 245.79 27 249.695 27C252.66 27 255.118 26.2742 257.071 24.8589C259.023 23.4073 259.999 21.4476 259.999 18.9435C259.999 16.621 259.132 14.8064 257.396 13.5726Z" fill="#2399F1"/>
<path d="M123.368 0.362335L125.646 5.84217L127.49 10.3422L131.431 19.8502L135.336 10.3422L137.216 5.84217L139.457 0.362335H145.062L133.926 26.5639H128.828L117.691 0.362335H123.368Z" fill="#2399F1"/>
<path d="M220.479 21.7363H201.027V26.5266H220.479V21.7363Z" fill="#2399F1"/>
<path d="M220.479 11.1397H201.027V15.93H220.479V11.1397Z" fill="#2399F1"/>
<path d="M220.479 0.507812H201.027V5.29813H220.479V0.507812Z" fill="#2399F1"/>

<rect id="my_circle" width="5" x="0" y="-50" height="150" fill="white" fill-opacity="0.45" transform="translate(20) rotate(-20 50 50)"></rect>
<animate 
	xlink:href="#my_circle"
	attributeName="x"
	id="animate"
	from="-220"
	to="25000"
	dur="60s"
	repeatCount="indefinite"
	fill="freeze" />
</svg>
